<?xml version="1.0" encoding="UTF-8"?>
<svg width="235px" height="220px" viewBox="0 0 235 220" version="1.1" xmlns="http://www.w3.org/2000/svg" xmlns:xlink="http://www.w3.org/1999/xlink">
    <!-- Generator: Sketch 55 (78076) - https://sketchapp.com -->
    <title>Group 8</title>
    <desc>Created with Sketch.</desc>
    <g id="Page-1" stroke="none" stroke-width="1" fill="none" fill-rule="evenodd">
        <g id="Group-8">
            <g id="Blue_circle" fill="#4F73B8" fill-rule="nonzero">
                <ellipse id="Oval" cx="117.729492" cy="110.153909" rx="117.086914" ry="109.574486"></ellipse>
            </g>
            <g id="Layer_6" transform="translate(46.000000, 31.000000)" fill="#EC5554" fill-rule="nonzero">
                <path d="M132.462534,103.786509 C132.462534,108.467041 131.305616,113.536864 128.982671,118.986923 C126.659726,124.436982 123.006781,129.787456 118.023836,135.038343 C113.04089,140.289231 106.682397,144.553314 98.9392466,147.830592 C91.1960959,151.10787 82.1776027,152.746509 71.8837671,152.746509 C64.0768493,152.746509 56.9713699,152.013195 50.5764384,150.537515 C44.1815068,149.070888 38.3786986,146.771361 33.1589041,143.666095 C27.9391096,140.551775 23.1474658,136.459704 18.774863,131.371775 C14.8668493,126.754615 11.5418493,121.585207 8.78164384,115.872604 C6.02143836,110.150947 3.95356164,104.049053 2.56890411,97.5578698 C1.18424658,91.0666864 0.501027397,84.1771598 0.501027397,76.8892899 C0.501027397,65.0476331 2.23184932,54.4462722 5.70260274,45.0761538 C9.17335616,35.7150888 14.1380822,27.7029586 20.5967808,21.0397633 C27.0554795,14.3856213 34.6346575,9.31579882 43.3160959,5.83934911 C51.9975342,2.36289941 61.2528767,0.624674556 71.0821233,0.624674556 C83.0612329,0.624674556 93.7285616,2.99662722 103.093219,7.7495858 C112.448767,12.5025444 119.618014,18.3690533 124.600959,25.3581657 C129.583904,32.3472781 132.070822,38.9561538 132.070822,45.1757396 C132.070822,48.5888166 130.859247,51.594497 128.436096,54.2108876 C126.012945,56.8272781 133.501027,58.1218935 130.075822,58.1218935 C126.240685,58.1218935 112.940685,57.216568 111.018562,55.4149704 C109.096438,53.6043195 106.964795,50.4990533 104.605411,46.0810651 C100.697397,38.7931953 96.1061644,33.3340828 90.8226027,29.7218343 C85.5390411,26.1095858 79.0256849,24.2989349 71.2825342,24.2989349 C58.9663699,24.2989349 49.1553425,28.9523077 41.8494521,38.25 C34.5435616,47.5476923 30.8906164,60.7654438 30.8906164,77.8851479 C30.8906164,89.3284615 32.5030137,98.843432 35.7369178,106.430059 C38.9708219,114.02574 43.5438356,119.693077 49.4650685,123.441124 C55.3863014,127.189172 62.3186986,129.063195 70.2622603,129.063195 C78.8799315,129.063195 86.1676027,126.93568 92.125274,122.689704 C98.0829452,118.443728 102.573973,112.206036 105.607466,103.976627 C106.882808,100.101834 108.467877,96.9331953 110.353562,94.4978698 C112.239247,92.0534911 115.26363,90.8313018 119.444932,90.8313018 C123.01589,90.8313018 133.701438,89.735858 132.471644,93.4476923 C131.342055,96.8336095 132.462534,100.110888 132.462534,103.786509 Z" id="Path"></path>
            </g>
            <g id="Yellow_C" transform="translate(51.000000, 31.000000)">
                <path d="M137.8528,103.786509 C137.8528,108.467041 136.6752,113.536864 134.3384,118.986923 C131.9924,124.436982 128.3032,129.787456 123.2708,135.038343 C118.2384,140.289231 111.8168,144.553314 103.9968,147.830592 C96.1768,151.10787 87.0688,152.746509 76.6636,152.746509 C68.7792,152.746509 61.6032,152.013195 55.1448,150.537515 C48.6864,149.070888 42.826,146.771361 37.5544,143.666095 C32.2828,140.551775 27.4436,136.459704 23.0276,131.371775 C19.0808,126.754615 15.7228,121.585207 12.9352,115.872604 C10.1476,110.150947 8.0592,104.049053 6.6608,97.5578698 C5.2624,91.0666864 4.5724,84.1771598 4.5724,76.8892899 C4.5724,65.0476331 6.3204,54.4462722 9.8256,45.0761538 C13.3308,35.7150888 18.3448,27.7029586 24.8676,21.0397633 C31.3904,14.3856213 39.0448,9.31579882 47.8124,5.83934911 C56.58,2.36289941 65.9272,0.624674556 75.854,0.624674556 C87.952,0.624674556 98.7252,2.99662722 108.1828,7.7495858 C117.6312,12.5025444 124.8716,18.3690533 129.904,25.3581657 C134.9364,32.3472781 137.448,38.9561538 137.448,45.1757396 C137.448,48.5888166 136.2244,51.594497 133.7772,54.2108876 C131.33,56.8272781 128.3676,58.1218935 124.9084,58.1218935 C121.0352,58.1218935 118.128,57.216568 116.1868,55.4149704 C114.2456,53.6043195 112.0928,50.4990533 109.71,46.0810651 C105.7632,38.7931953 101.1264,33.3340828 95.7904,29.7218343 C90.4544,26.1095858 83.8764,24.2989349 76.0564,24.2989349 C63.618,24.2989349 53.7096,28.9523077 46.3312,38.25 C38.9528,47.5476923 35.2636,60.7654438 35.2636,77.8851479 C35.2636,89.3284615 36.892,98.843432 40.158,106.430059 C43.424,114.02574 48.0424,119.693077 54.0224,123.441124 C60.0024,127.189172 67.0036,129.063195 75.026,129.063195 C83.7292,129.063195 91.0892,126.93568 97.106,122.689704 C103.1228,118.443728 107.6584,112.206036 110.722,103.976627 C112.01,100.101834 113.6108,96.9331953 115.5152,94.4978698 C117.4196,92.0534911 120.474,90.8313018 124.6968,90.8313018 C128.3032,90.8313018 131.3944,92.0715976 133.9796,94.5431361 C136.5648,97.0327811 137.8528,100.110888 137.8528,103.786509 Z" id="Path" fill="#FFF200" fill-rule="nonzero"></path>
                <polygon id="Path" points="0.3864 21.1484024 2.4564 21.1484024 2.4564 21.1484024"></polygon>
            </g>
        </g>
    </g>
</svg>